# xmcd CD database file
#
# Track frame offsets:
#	150
#	19099
#	30244
#	43890
#	62933
#	86897
#	111788
#	130997
#	149449
#	175136
#	187081
#	203185
#	224029
#	236153
#	254948
#	286723
#	317256
#
# Disc length: 4473 seconds
#
# Revision: 0
# Processed by: cddbd v1.5.2PL0 Copyright (c) Steve Scherf et al.
# Submitted via: Feurio! 1.68 - http://www.feurio.com
#
DISCID=0b117711
DTITLE=BBC Blues Sessions   Volume 8 - Colin John and Ben Waters, Colin John, 
DTITLE=Colin John and Michael Hill, Ana Popovic, Michael Roach Band, Johnny 
DTITLE=Mastro and Mama's Boys, Ian Parker
DYEAR=1900
DGENRE=
TTITLE0=Colin John and Ben Waters - Eleven Months and Twenty Nine Days
TTITLE1=Colin John - Voggy Mountain Breakdown
TTITLE2=Colin John and Michael Hill - Two Time Mama
TTITLE3=Ana Popovic - Is This Everything There Is
TTITLE4=Ana Popovic - Sittin On Top Of The World
TTITLE5=Michael Roach Band - U Complete Me
TTITLE6=Michael Roach Band - Baby No No No
TTITLE7=Michael Roach Band - Revolution
TTITLE8=Michael Roach Band - I Pity The Fool
TTITLE9=Michael Roach Band - I Betcha
TTITLE10=Johnny Mastro and Mama's Boys - Take Your Time
TTITLE11=Johnny Mastro and Mama's Boys - 8 Ball
TTITLE12=Johnny Mastro and Mama's Boys - Throwdown
TTITLE13=Ian Parker - Your Love Is My Home
TTITLE14=Ian Parker - Love So Cold
TTITLE15=Ian Parker - Before Sunrise
TTITLE16=Ian Parker - Waste My Days
EXTD=
EXTT0=
EXTT1=
EXTT2=
EXTT3=
EXTT4=
EXTT5=
EXTT6=
EXTT7=
EXTT8=
EXTT9=
EXTT10=
EXTT11=
EXTT12=
EXTT13=
EXTT14=
EXTT15=
EXTT16=
PLAYORDER=
